<svg width="164" height="34" viewBox="0 0 164 34" fill="none" xmlns="http://www.w3.org/2000/svg">
<path fill-rule="evenodd" clip-rule="evenodd" d="M0.703957 0.724432C1.09129 1.12297 2.08752 2.35276 2.91821 3.45757L4.4285 5.46627L10.7015 5.42532C14.1515 5.40272 16.9948 5.36408 17.0195 5.33916C17.0444 5.31443 17.1244 4.10279 17.1976 2.64698L17.3303 0H8.66517H0L0.703957 0.724432ZM23.5668 0.627841C23.4762 1.21241 22.7906 28.7427 22.7814 32.1648L22.7773 33.7102L24.0038 33.7682C24.8391 33.8078 25.3679 33.7361 25.6617 33.5435C25.8989 33.3882 26.9945 31.9712 28.0962 30.3946C29.1979 28.8183 30.7615 26.6156 31.5707 25.5C33.0928 23.4015 38.4718 15.8229 41.5159 11.4881C42.4722 10.1264 44.6889 7.09325 46.4421 4.74763C48.1952 2.40202 49.6991 0.374386 49.7841 0.241477C49.9058 0.0511932 49.1207 0 46.0814 0H42.2243L37.8132 6.57823C35.3872 10.1961 32.7938 14.0884 32.05 15.2277C31.3063 16.3669 30.4961 17.5577 30.2498 17.874L29.8018 18.4489L29.9098 16.0857C29.9693 14.7859 30.1056 10.9609 30.2129 7.58567C30.3201 4.2104 30.4431 1.12297 30.4862 0.724432L30.5645 0H27.1142H23.6642L23.5668 0.627841ZM53.266 0.434659C53.051 0.673818 52.5841 1.30398 52.2284 1.83523C51.8728 2.36648 51.1644 3.34205 50.654 4.00292C50.1436 4.66399 49.7262 5.25088 49.7262 5.3069C49.7262 5.36312 51.4165 5.40909 53.4826 5.40909H57.239L58.9523 2.94602C59.8945 1.59143 60.7304 0.374386 60.8096 0.241477C60.9226 0.0517727 60.1719 0 57.3053 0C53.7667 0 53.6454 0.0131364 53.266 0.434659ZM63.3368 0.147787C63.1811 0.257321 61.0412 3.38996 59.9034 5.1738C59.7762 5.37335 60.714 5.41141 64.7329 5.37007C70.3338 5.31231 70.6222 5.3635 71.0969 6.49941C71.343 7.08842 71.3556 7.41509 71.173 8.46349C70.6624 11.396 68.828 13.2673 66.2619 13.4733C65.5209 13.5328 64.9918 13.4928 64.9168 13.3713C64.8488 13.2614 64.9711 12.756 65.1888 12.2483C65.7904 10.8447 65.8754 9.81711 65.4496 9.09616C64.9761 8.29465 64.1391 8.08601 61.6723 8.15517L59.7046 8.21023L59.1843 9.46591C58.8982 10.1565 57.0999 14.4162 55.188 18.9318C50.4784 30.0556 49.1466 33.2837 49.1466 33.575C49.1466 33.8451 53.7468 33.8613 58.8057 33.6092C63.7355 33.3635 66.3817 32.027 68.8585 28.5312C71.0679 25.4131 72.0568 21.2689 71.2443 18.5331L70.9331 17.4847L71.4663 17.0976C73.8946 15.3336 75.0542 14.0383 76.1519 11.8635C77.6589 8.87844 78.0907 5.35558 77.1916 3.38068C76.2004 1.20333 74.7558 0.409349 71.3625 0.176952C68.5108 -0.0183552 63.5985 -0.0361222 63.3368 0.147787ZM82.6328 0.148559C82.3528 0.326673 81.1821 3.24951 79.4812 8.01705C78.098 11.894 78.0078 12.121 75.5843 17.8243C74.737 19.8183 73.5787 22.6871 73.0104 24.1993C71.61 27.9252 70.2863 31.1345 69.5257 32.6477L68.8946 33.9034L77.4213 33.8489L85.9477 33.7946L88.3137 31.4376C89.6149 30.1414 90.9438 28.713 91.2666 28.2635L91.8533 27.4463L85.1976 27.3907C81.537 27.3601 78.4759 27.269 78.3951 27.1882C78.3144 27.1073 78.8371 25.5643 79.5567 23.7592L80.8651 20.4773H84.6886H88.5122L89.013 19.2699C89.2883 18.6059 89.8529 17.1733 90.2677 16.0866L91.0217 14.1106L87.4223 14.0582C83.9481 14.0074 83.8247 13.9922 83.8772 13.6193C83.9072 13.4068 84.5908 11.5274 85.3968 9.44273L86.8619 5.65269L88.027 5.5308C88.6677 5.46396 90.6842 5.40909 92.5082 5.40909H95.8244L96.3104 4.87784C96.5778 4.58575 97.4993 3.42531 98.358 2.29925L99.9194 0.252101L97.008 0.125956C93.0682 -0.0444303 82.9111 -0.0285885 82.6328 0.148559ZM101.739 1.48055C101.235 2.18856 100.367 3.32853 99.8107 4.01393C99.2541 4.69915 98.834 5.31695 98.8772 5.38688C98.9205 5.45681 99.6801 5.45391 100.565 5.38031C102.739 5.19988 110.035 5.20818 111.334 5.39267C112.741 5.59242 113.175 6.10705 113.023 7.39384C112.759 9.61929 111.02 11.9966 109.272 12.5203C108.38 12.7877 106.522 12.8282 106.522 12.5804C106.522 12.4871 106.652 12.0988 106.811 11.7172C107.207 10.7709 107.191 9.19681 106.781 8.78746C106.227 8.23322 105.595 8.11364 103.219 8.11364C101.191 8.11364 100.893 8.15517 100.79 8.4517C100.536 9.18309 98.2697 15.0436 96.2886 20.0909C93.9994 25.9231 93.7057 26.751 93.8128 27.0721C93.8524 27.1911 95.4894 26.2063 97.4504 24.8836C102.461 21.5042 103.775 20.7497 108.877 18.3241C118.479 13.758 126.555 11.1275 134.558 9.95891C135.687 9.79393 136.918 9.65909 137.292 9.65909C137.961 9.65909 137.976 9.64209 138.083 8.74148C138.143 8.23669 138.244 6.25909 138.309 4.34659C138.373 2.43409 138.468 0.717091 138.521 0.53125C138.61 0.214818 138.257 0.193182 133.027 0.193182H127.438L125.165 4.68466C122.714 9.52792 121.572 11.5911 121.149 11.9421C120.929 12.1252 119.549 12.579 117.059 13.2878C116.701 13.3896 116.704 13.3603 117.115 12.7347C118.783 10.1944 119.553 7.74582 119.419 5.40909C119.275 2.90275 118.032 1.3146 115.637 0.574912C114.521 0.230275 113.832 0.193182 108.529 0.193182H102.656L101.739 1.48055ZM152.022 0.601376C150.572 0.812717 148.691 1.43341 147.522 2.08675C145.659 3.12819 143.033 6.06765 143.033 7.11218C143.033 7.56693 143.821 7.32352 145.166 6.45304C148.81 4.09603 152.339 3.28757 159.011 3.28119C160.689 3.27945 162.159 3.21435 162.278 3.1363C162.476 3.00649 163.703 0.726362 163.703 0.488555C163.703 0.319521 153.265 0.420365 152.022 0.601376ZM153.32 5.22866C151.413 5.47671 149.257 6.13101 147.476 7.00207C145.164 8.13353 142.741 10.5641 141.446 13.0508C139.645 16.5095 138.905 19.652 138.902 23.858C138.899 28.4775 140.059 30.9006 143.103 32.6276C145.127 33.7765 145.688 33.8596 152.045 33.9523C157.582 34.0332 157.875 34.0197 157.977 33.6807C158.036 33.4844 158.218 32.5415 158.383 31.5852C159.015 27.9036 160.391 21.8481 161.313 18.6903C161.404 18.3766 161.14 18.3523 157.631 18.3523C155.552 18.3523 153.851 18.3814 153.851 18.4172C153.851 18.5205 151.915 26.719 151.802 27.0938C151.716 27.3787 151.46 27.4318 150.172 27.4318C148.238 27.4318 147.251 27.0599 146.659 26.1083C146.265 25.4743 146.222 25.1702 146.232 23.0852C146.244 20.4865 146.484 19.1283 147.308 16.9745C148.492 13.8824 150.787 11.521 153.085 11.028C153.623 10.9126 155.36 10.8182 156.945 10.8182C160.301 10.8182 159.839 11.1512 161.104 7.82386C161.548 6.65511 161.976 5.54664 162.055 5.3608C162.19 5.04494 161.948 5.02428 158.363 5.04726C156.254 5.06079 153.984 5.14231 153.32 5.22866ZM50.3407 9.5142C50.0215 10.2846 48.79 13.3054 47.6041 16.2273C46.4183 19.1491 44.851 22.9741 44.1214 24.7273C43.3917 26.4804 42.365 28.958 41.8397 30.233C41.3146 31.508 40.7521 32.8554 40.5898 33.2273L40.2946 33.9034L43.6 33.8068L46.9053 33.7102L47.5372 32.2614C47.8848 31.4645 49.2646 28.1176 50.6036 24.8239C53.8678 16.7943 55.5923 12.6664 56.5231 10.6551C56.9488 9.7354 57.3735 8.78745 57.467 8.5483L57.637 8.11364H54.2793H50.9214L50.3407 9.5142ZM7.80571 11.3568C7.80571 11.5697 10.1378 14.4618 11.145 15.4982C12.1368 16.5188 12.5039 16.6136 15.4605 16.6136H17.658V15.1292C17.658 13.1684 17.1965 12.1623 16.0399 11.6025C15.2975 11.243 14.859 11.2045 11.5117 11.2045C9.47345 11.2045 7.80571 11.2731 7.80571 11.3568ZM134.053 11.8162C132.46 12.0258 131.145 12.213 131.13 12.2323C131.115 12.2514 130.96 14.0491 130.785 16.2273C130.61 18.4054 130.424 20.3832 130.371 20.6222C130.28 21.0392 130.194 21.0568 128.251 21.0568C127.137 21.0568 126.226 21.019 126.226 20.9728C126.226 20.843 129.117 14.2949 129.545 13.4557C129.753 13.0469 129.889 12.6781 129.847 12.6362C129.74 12.5294 124.02 13.9883 122.845 14.422L121.88 14.7784L120.388 17.7727C119.568 19.4196 118.233 22.2449 117.42 24.0511C116.608 25.8574 115.215 28.7569 114.323 30.4945C113.433 32.2322 112.703 33.7338 112.703 33.8312C112.703 33.9343 114.217 33.9865 116.323 33.9559L119.942 33.9034L121.397 30.9835C122.197 29.3774 122.97 27.9213 123.114 27.7477C123.337 27.4788 123.849 27.4318 126.562 27.4318H129.749L129.634 28.8324C129.572 29.6026 129.464 31.0806 129.396 32.1165L129.271 34H133.061C135.146 34 136.852 33.9349 136.853 33.8551C136.854 33.7753 136.94 32.0585 137.044 30.0398C137.148 28.021 137.363 23.7179 137.522 20.4773C137.681 17.2366 137.864 13.8681 137.928 12.9915L138.045 11.3977L137.496 11.4163C137.195 11.4265 135.645 11.6064 134.053 11.8162ZM115.891 16.9478C115.313 17.0918 110.27 19.3873 108.907 20.127L107.718 20.7719L108.182 21.3114C108.957 22.212 108.714 24.1825 107.636 25.7407C107.005 26.6525 105.691 27.2806 104.189 27.388C103.453 27.4407 102.851 27.4307 102.851 27.3656C102.851 27.0934 103.81 24.7298 104.373 23.614C104.725 22.9179 104.887 22.4091 104.757 22.4091C103.475 22.4091 90.8466 31.0609 88.5704 33.4985L88.1019 34L95.2352 33.9985C99.1583 33.9977 103.101 33.9129 103.996 33.8099C106.108 33.5671 108.318 32.8212 109.84 31.8377C113.746 29.313 116.953 23.7129 116.953 19.4171C116.953 18.3728 116.564 16.7411 116.335 16.8292C116.303 16.8416 116.103 16.8949 115.891 16.9478ZM60.6579 20.9073C60.2948 21.4615 58.4193 26.3732 58.4193 26.7702C58.4193 27.1069 60.4358 27.154 61.5537 26.8434C62.7313 26.5163 63.8563 25.5131 64.5515 24.1703C65.2798 22.7634 65.3665 21.7156 64.8115 21.03C64.4822 20.6229 64.2552 20.5667 62.7031 20.507C61.042 20.4431 60.9502 20.461 60.6579 20.9073ZM14.5671 21.3686C14.5671 21.4339 14.9867 21.9773 15.4996 22.576C16.0123 23.1749 16.7089 24.0733 17.0475 24.5725C17.386 25.0717 17.7436 25.5301 17.8419 25.5908C17.9464 25.6555 18.0457 24.7765 18.0809 23.4753L18.1409 21.2492L16.354 21.2496C15.3711 21.2498 14.5671 21.3033 14.5671 21.3686Z" fill="#EF8354"/>
</svg>
